<?xml version="1.0" encoding="utf-8"?>
<!-- Generator: Adobe Illustrator 19.2.1, SVG Export Plug-In . SVG Version: 6.00 Build 0)  -->
<svg version="1.1" id="Layer_1" xmlns="http://www.w3.org/2000/svg" xmlns:xlink="http://www.w3.org/1999/xlink" x="0px" y="0px"
	 viewBox="0 0 85.4 33.6" style="enable-background:new 0 0 85.4 33.6;" xml:space="preserve">
<g>
	<path d="M12.4,5v27.6c0,0.3-0.1,0.5-0.3,0.7s-0.4,0.3-0.7,0.3H8.8c-0.3,0-0.5-0.1-0.7-0.3s-0.3-0.4-0.3-0.7V5
		c0-0.3-0.2-0.5-0.5-0.5H1c-0.3,0-0.5-0.1-0.7-0.3C0.1,4.1,0,3.9,0,3.6V1c0-0.3,0.1-0.5,0.3-0.7C0.5,0.1,0.7,0,1,0h18.2
		c0.3,0,0.5,0.1,0.7,0.3c0.2,0.2,0.3,0.4,0.3,0.7v2.6c0,0.3-0.1,0.5-0.3,0.7c-0.2,0.2-0.4,0.3-0.7,0.3h-6.3
		C12.5,4.6,12.4,4.7,12.4,5z"/>
	<path d="M27.9,32.6c0,0.3-0.1,0.5-0.3,0.7s-0.4,0.3-0.7,0.3h-2.6c-0.3,0-0.5-0.1-0.7-0.3c-0.2-0.2-0.3-0.4-0.3-0.7V1
		c0-0.3,0.1-0.5,0.3-0.7C23.9,0.1,24.1,0,24.3,0H27c0.3,0,0.5,0.1,0.7,0.3s0.3,0.4,0.3,0.7V32.6z"/>
	<path d="M47.7,24.5c0.1,0.2,0.1,0.2,0.2,0.2c0.1,0,0.2-0.1,0.2-0.2l6.6-23.7c0.1-0.5,0.5-0.8,1-0.8h4.9c0.3,0,0.5,0.1,0.7,0.3
		s0.3,0.4,0.3,0.7v31.7c0,0.3-0.1,0.5-0.3,0.7s-0.4,0.3-0.7,0.3h-2.5c-0.3,0-0.5-0.1-0.7-0.3c-0.2-0.2-0.3-0.4-0.3-0.7v-24
		c0-0.2-0.1-0.2-0.2-0.2c-0.1,0-0.2,0-0.2,0.1l-6.9,24.2c-0.2,0.5-0.5,0.8-1,0.8h-2c-0.5,0-0.8-0.3-1-0.8L39,8.5
		c0-0.1-0.1-0.1-0.2-0.1c-0.1,0-0.2,0.1-0.2,0.2v24c0,0.3-0.1,0.5-0.3,0.7s-0.4,0.3-0.7,0.3h-2.5c-0.3,0-0.5-0.1-0.7-0.3
		c-0.2-0.2-0.3-0.4-0.3-0.7V1c0-0.3,0.1-0.5,0.3-0.7C34.7,0.1,34.9,0,35.1,0H40c0.5,0,0.9,0.3,1,0.8L47.7,24.5z"/>
	<path d="M72.4,28.6c0,0.3,0.2,0.5,0.5,0.5h11.5c0.3,0,0.5,0.1,0.7,0.3c0.2,0.2,0.3,0.4,0.3,0.7v2.6c0,0.3-0.1,0.5-0.3,0.7
		c-0.2,0.2-0.4,0.3-0.7,0.3H68.8c-0.3,0-0.5-0.1-0.7-0.3c-0.2-0.2-0.3-0.4-0.3-0.7V1c0-0.3,0.1-0.5,0.3-0.7C68.4,0.1,68.6,0,68.8,0
		h15.5c0.3,0,0.5,0.1,0.7,0.3c0.2,0.2,0.3,0.4,0.3,0.7v2.6c0,0.3-0.1,0.5-0.3,0.7c-0.2,0.2-0.4,0.3-0.7,0.3H72.9
		c-0.3,0-0.5,0.2-0.5,0.5v8.6c0,0.3,0.2,0.5,0.5,0.5h10.9c0.3,0,0.5,0.1,0.7,0.3c0.2,0.2,0.3,0.4,0.3,0.7v2.6c0,0.3-0.1,0.5-0.3,0.7
		c-0.2,0.2-0.4,0.3-0.7,0.3H72.9c-0.3,0-0.5,0.2-0.5,0.5V28.6z"/>
</g>
</svg>
