<?xml version="1.0" encoding="utf-8"?>
<!-- Generator: Adobe Illustrator 19.2.1, SVG Export Plug-In . SVG Version: 6.00 Build 0)  -->
<svg version="1.1" id="Layer_1" xmlns="http://www.w3.org/2000/svg" xmlns:xlink="http://www.w3.org/1999/xlink" x="0px" y="0px"
	 viewBox="0 0 112.8 34.4" style="enable-background:new 0 0 112.8 34.4;" xml:space="preserve">
<g>
	<path d="M17,24.4c0-1.1-0.2-2-0.6-2.7C16,21,15.5,20.5,14.8,20c-0.7-0.4-1.6-0.8-2.5-1c-1-0.3-2.1-0.5-3.3-0.8
		c-1.2-0.3-2.3-0.6-3.2-1.1c-1-0.5-1.8-1.1-2.5-1.9c-0.7-0.8-1.3-1.6-1.7-2.7c-0.4-1-0.6-2.2-0.6-3.5c0-1.4,0.3-2.7,0.8-3.8
		C2.3,4.1,3.1,3.1,4,2.4C4.9,1.6,6,1,7.2,0.6C8.3,0.2,9.6,0,10.8,0c1.4,0,2.7,0.2,3.9,0.7c1.2,0.5,2.2,1.1,3.1,1.9
		c0.9,0.8,1.6,1.8,2.1,2.9c0.5,1.1,0.7,2.3,0.7,3.5v0.6c0,0.3-0.1,0.5-0.3,0.7s-0.4,0.3-0.7,0.3H17c-0.3,0-0.5-0.1-0.7-0.3
		s-0.3-0.4-0.3-0.7V9c0-0.8-0.2-1.5-0.5-2c-0.3-0.6-0.7-1-1.2-1.4c-0.5-0.4-1.1-0.6-1.7-0.8c-0.6-0.2-1.2-0.2-1.8-0.2
		C9.2,4.6,8,5,7,5.8C6,6.6,5.5,7.6,5.5,9c0,1.1,0.2,1.9,0.7,2.5s1,1.1,1.8,1.5c0.7,0.4,1.5,0.6,2.3,0.8c0.8,0.2,1.7,0.4,2.4,0.6
		c2.7,0.7,4.9,1.8,6.5,3.4c1.6,1.6,2.4,3.8,2.4,6.5c0,1.5-0.3,2.9-0.9,4.2c-0.6,1.2-1.4,2.3-2.4,3.1c-1,0.9-2.1,1.5-3.5,2
		c-1.3,0.5-2.7,0.7-4,0.7c-1.5,0-3-0.3-4.3-0.8C5.2,33,4,32.3,3.1,31.4c-1-0.9-1.7-2-2.3-3.2C0.3,27,0,25.8,0,24.4v-0.8
		c0-0.3,0.1-0.5,0.3-0.7s0.4-0.3,0.7-0.3h2.7c0.3,0,0.5,0.1,0.7,0.3c0.2,0.2,0.3,0.4,0.3,0.7v0.8c0,0.8,0.2,1.5,0.5,2.2
		c0.3,0.7,0.7,1.2,1.3,1.7c0.6,0.5,1.2,0.9,2,1.1c0.8,0.3,1.6,0.4,2.5,0.4c0.9,0,1.7-0.1,2.5-0.4c0.8-0.3,1.4-0.7,2-1.2
		c0.6-0.5,1-1.1,1.3-1.7C16.8,25.9,17,25.2,17,24.4z"/>
	<path d="M35.8,0.4c1.4,0,2.7,0.3,3.9,0.8c1.2,0.5,2.3,1.2,3.2,2.2c0.9,0.9,1.6,2,2.2,3.2c0.5,1.2,0.8,2.5,0.8,3.9
		c0,1.4-0.3,2.7-0.8,3.9c-0.5,1.2-1.2,2.3-2.2,3.2c-0.9,0.9-2,1.6-3.2,2.2c-1.2,0.5-2.5,0.8-3.9,0.8h-4.6c-0.3,0-0.5,0.2-0.5,0.5v12
		c0,0.3-0.1,0.5-0.3,0.7S30,34,29.8,34h-2.6c-0.3,0-0.5-0.1-0.7-0.3c-0.2-0.2-0.3-0.4-0.3-0.7V1.3c0-0.3,0.1-0.5,0.3-0.7
		c0.2-0.2,0.4-0.3,0.7-0.3H35.8z M31.2,4.9c-0.3,0-0.5,0.2-0.5,0.5v10.1c0,0.3,0.2,0.5,0.5,0.5h4.6c0.8,0,1.5-0.1,2.1-0.4
		c0.7-0.3,1.2-0.7,1.8-1.2c0.5-0.5,0.9-1.1,1.2-1.8c0.3-0.7,0.4-1.4,0.4-2.1S41.1,9,40.8,8.3c-0.3-0.7-0.7-1.2-1.2-1.8
		c-0.5-0.5-1.1-0.9-1.8-1.2c-0.7-0.3-1.4-0.4-2.1-0.4H31.2z"/>
	<path d="M60.3,25.9c-0.1-0.4-0.4-0.7-0.9-0.7h-8c-0.4,0-0.8,0.2-0.9,0.7l-2.1,7.3c-0.2,0.5-0.5,0.7-0.9,0.7h-2.6
		c-0.4,0-0.7-0.1-0.8-0.3c-0.2-0.2-0.2-0.4-0.1-0.6l8.9-31.9c0.1-0.5,0.4-0.7,0.9-0.7h3.4c0.5,0,0.8,0.2,0.9,0.7L66.9,33
		c0.1,0.2,0,0.4-0.1,0.6C66.6,33.9,66.3,34,66,34h-2.6c-0.4,0-0.8-0.2-0.9-0.7L60.3,25.9z M58.4,20.8c0.4,0,0.5-0.2,0.4-0.5
		L55.6,6.9c-0.1-0.2-0.1-0.3-0.2-0.3h-0.1c-0.1,0-0.2,0.1-0.2,0.3L52,20.3c-0.1,0.4,0,0.5,0.4,0.5H58.4z"/>
	<path d="M90.2,24.4c0,1.3-0.3,2.6-0.8,3.8c-0.5,1.2-1.3,2.3-2.2,3.2c-1,0.9-2.1,1.6-3.4,2.2c-1.3,0.5-2.8,0.8-4.3,0.8
		c-1.4,0-2.8-0.2-4-0.7c-1.2-0.5-2.3-1.1-3.3-2c-0.9-0.9-1.7-1.9-2.3-3.1c-0.6-1.2-1-2.6-1.2-4.2c-0.1-1-0.2-2.1-0.3-3.3
		c-0.1-1.3-0.1-2.6-0.1-3.9c0-1.3,0-2.6,0.1-3.9c0.1-1.2,0.2-2.4,0.3-3.3c0.2-1.3,0.5-2.6,1.1-3.8C70.2,5,71,4,71.9,3
		c0.9-0.9,2-1.7,3.3-2.2C76.4,0.3,77.8,0,79.4,0c1.4,0,2.8,0.2,4.1,0.7c1.3,0.4,2.5,1.1,3.4,2c1,0.9,1.8,1.9,2.4,3.1
		c0.6,1.2,0.9,2.6,0.9,4.2v0.7c0,0.3-0.1,0.5-0.3,0.7c-0.2,0.2-0.4,0.3-0.7,0.3h-2.6c-0.3,0-0.5-0.1-0.7-0.3
		c-0.2-0.2-0.3-0.4-0.3-0.7V10c0-0.7-0.1-1.4-0.4-2C85,7.3,84.5,6.7,84,6.2c-0.5-0.5-1.2-0.9-2-1.2c-0.8-0.3-1.6-0.5-2.6-0.5
		c-1.6,0-2.9,0.5-4.1,1.4c-1.2,0.9-1.9,2.3-2.1,4c-0.1,1-0.2,2.1-0.3,3.4c-0.1,1.2-0.1,2.5-0.1,3.8c0,1.3,0,2.6,0.1,3.8
		c0.1,1.2,0.2,2.4,0.3,3.4c0.1,0.7,0.3,1.4,0.6,2c0.3,0.7,0.7,1.2,1.2,1.7c0.5,0.5,1.2,0.9,1.9,1.2c0.7,0.3,1.6,0.5,2.5,0.5
		c0.8,0,1.6-0.1,2.3-0.4c0.8-0.2,1.4-0.6,2-1c0.6-0.4,1-1,1.4-1.7c0.4-0.7,0.5-1.5,0.5-2.3v-0.7c0-0.3,0.1-0.5,0.3-0.7
		c0.2-0.2,0.4-0.3,0.7-0.3h2.6c0.3,0,0.5,0.1,0.7,0.3c0.2,0.2,0.3,0.4,0.3,0.7V24.4z"/>
	<path d="M99.8,28.9c0,0.3,0.2,0.5,0.5,0.5h11.5c0.3,0,0.5,0.1,0.7,0.3c0.2,0.2,0.3,0.4,0.3,0.7V33c0,0.3-0.1,0.5-0.3,0.7
		c-0.2,0.2-0.4,0.3-0.7,0.3H96.2c-0.3,0-0.5-0.1-0.7-0.3c-0.2-0.2-0.3-0.4-0.3-0.7V1.3c0-0.3,0.1-0.5,0.3-0.7
		c0.2-0.2,0.4-0.3,0.7-0.3h15.5c0.3,0,0.5,0.1,0.7,0.3c0.2,0.2,0.3,0.4,0.3,0.7V4c0,0.3-0.1,0.5-0.3,0.7c-0.2,0.2-0.4,0.3-0.7,0.3
		h-11.4c-0.3,0-0.5,0.2-0.5,0.5v8.6c0,0.3,0.2,0.5,0.5,0.5h10.9c0.3,0,0.5,0.1,0.7,0.3c0.2,0.2,0.3,0.4,0.3,0.7v2.6
		c0,0.3-0.1,0.5-0.3,0.7c-0.2,0.2-0.4,0.3-0.7,0.3h-10.9c-0.3,0-0.5,0.2-0.5,0.5V28.9z"/>
</g>
</svg>
