<?xml version="1.0" encoding="utf-8"?>
<!-- Generator: Adobe Illustrator 19.2.1, SVG Export Plug-In . SVG Version: 6.00 Build 0)  -->
<svg version="1.1" id="Layer_1" xmlns="http://www.w3.org/2000/svg" xmlns:xlink="http://www.w3.org/1999/xlink" x="0px" y="0px"
	 viewBox="0 0 164.2 34.4" style="enable-background:new 0 0 164.2 34.4;" xml:space="preserve">
<g>
	<path d="M22,24.4c0,1.3-0.3,2.6-0.8,3.8c-0.5,1.2-1.3,2.3-2.2,3.2c-1,0.9-2.1,1.6-3.4,2.2c-1.3,0.5-2.8,0.8-4.3,0.8
		c-1.4,0-2.8-0.2-4-0.7c-1.2-0.5-2.3-1.1-3.3-2c-0.9-0.9-1.7-1.9-2.3-3.1c-0.6-1.2-1-2.6-1.2-4.2c-0.1-1-0.2-2.1-0.3-3.3
		C0,19.8,0,18.5,0,17.2c0-1.3,0-2.6,0.1-3.9C0.2,12,0.3,10.9,0.4,10c0.2-1.3,0.5-2.6,1.1-3.8C2,5,2.7,4,3.6,3c0.9-0.9,2-1.7,3.3-2.2
		C8.2,0.3,9.6,0,11.2,0c1.4,0,2.8,0.2,4.1,0.7c1.3,0.4,2.5,1.1,3.4,2c1,0.9,1.8,1.9,2.4,3.1C21.7,7,22,8.4,22,10v0.7
		c0,0.3-0.1,0.5-0.3,0.7c-0.2,0.2-0.4,0.3-0.7,0.3h-2.6c-0.3,0-0.5-0.1-0.7-0.3c-0.2-0.2-0.3-0.4-0.3-0.7V10c0-0.7-0.1-1.4-0.4-2
		c-0.3-0.7-0.7-1.2-1.2-1.7c-0.5-0.5-1.2-0.9-2-1.2s-1.6-0.5-2.6-0.5C9.6,4.6,8.2,5,7.1,6c-1.2,0.9-1.9,2.3-2.1,4
		c-0.1,1-0.2,2.1-0.3,3.4c-0.1,1.2-0.1,2.5-0.1,3.8c0,1.3,0,2.6,0.1,3.8c0.1,1.2,0.2,2.4,0.3,3.4c0.1,0.7,0.3,1.4,0.6,2
		c0.3,0.7,0.7,1.2,1.2,1.7C7.3,28.6,8,29,8.7,29.4c0.7,0.3,1.6,0.5,2.5,0.5c0.8,0,1.6-0.1,2.3-0.4c0.8-0.2,1.4-0.6,2-1
		c0.6-0.4,1-1,1.4-1.7c0.4-0.7,0.5-1.5,0.5-2.3v-0.7c0-0.3,0.1-0.5,0.3-0.7c0.2-0.2,0.4-0.3,0.7-0.3H21c0.3,0,0.5,0.1,0.7,0.3
		c0.2,0.2,0.3,0.4,0.3,0.7V24.4z"/>
	<path d="M37.2,0c1.4,0,2.8,0.2,4,0.7c1.2,0.5,2.3,1.1,3.3,2c0.9,0.9,1.7,1.9,2.3,3.1c0.6,1.2,1,2.6,1.2,4.2c0.1,1,0.2,2.1,0.3,3.3
		c0,1.3,0.1,2.6,0.1,3.9c0,1.3,0,2.6-0.1,3.9c-0.1,1.3-0.1,2.4-0.2,3.3c-0.2,1.3-0.5,2.6-1.1,3.8c-0.5,1.2-1.3,2.3-2.2,3.2
		c-0.9,0.9-2,1.6-3.3,2.2c-1.3,0.5-2.7,0.8-4.3,0.8c-1.4,0-2.8-0.2-4-0.7c-1.2-0.5-2.3-1.1-3.3-2c-0.9-0.9-1.7-1.9-2.3-3.1
		c-0.6-1.2-1-2.6-1.2-4.2c-0.1-1-0.2-2.1-0.3-3.3c-0.1-1.3-0.1-2.6-0.1-3.9c0-1.3,0-2.6,0.1-3.9c0.1-1.2,0.2-2.4,0.3-3.3
		c0.2-1.3,0.5-2.6,1.1-3.8C28,5,28.8,4,29.7,3c0.9-0.9,2-1.7,3.3-2.2C34.2,0.3,35.6,0,37.2,0z M37.2,29.8c1.6,0,3-0.5,4.2-1.4
		c1.1-0.9,1.8-2.3,2.1-4c0.1-1,0.2-2.1,0.3-3.4c0.1-1.2,0.1-2.5,0.1-3.8c0-1.3,0-2.6-0.1-3.8c-0.1-1.2-0.2-2.4-0.3-3.4
		c-0.1-0.7-0.3-1.4-0.6-2c-0.3-0.7-0.7-1.2-1.2-1.7c-0.5-0.5-1.2-0.9-1.9-1.2c-0.7-0.3-1.6-0.5-2.5-0.5c-1.6,0-2.9,0.5-4.1,1.4
		c-1.2,0.9-1.9,2.3-2.1,4c-0.1,1-0.2,2.1-0.3,3.4c-0.1,1.2-0.1,2.5-0.1,3.8c0,1.3,0,2.6,0.1,3.8c0.1,1.2,0.2,2.4,0.3,3.4
		c0.1,0.7,0.3,1.4,0.6,2c0.3,0.7,0.7,1.2,1.2,1.7c0.5,0.5,1.2,0.9,1.9,1.2C35.5,29.7,36.3,29.8,37.2,29.8z"/>
	<path d="M68.9,34c-0.3,0-0.5,0-0.6-0.1c-0.1-0.1-0.3-0.3-0.4-0.7L58.5,9.4c-0.1-0.1-0.1-0.1-0.2-0.1s-0.1,0.1-0.1,0.2V33
		c0,0.3-0.1,0.5-0.3,0.7c-0.2,0.2-0.4,0.3-0.7,0.3h-2.4c-0.3,0-0.5-0.1-0.7-0.3c-0.2-0.2-0.3-0.4-0.3-0.7V1.3c0-0.3,0.1-0.5,0.3-0.7
		c0.2-0.2,0.4-0.3,0.7-0.3h4c0.3,0,0.5,0,0.6,0.1c0.1,0.1,0.3,0.3,0.4,0.7l9.5,23.7c0.1,0.1,0.1,0.1,0.2,0.1c0.1,0,0.1-0.1,0.1-0.2
		V1.3c0-0.3,0.1-0.5,0.3-0.7c0.2-0.2,0.4-0.3,0.7-0.3h2.4c0.3,0,0.5,0.1,0.7,0.3c0.2,0.2,0.3,0.4,0.3,0.7V33c0,0.3-0.1,0.5-0.3,0.7
		c-0.2,0.2-0.4,0.3-0.7,0.3H68.9z"/>
	<path d="M89.5,5.4V33c0,0.3-0.1,0.5-0.3,0.7C89,33.9,88.8,34,88.5,34h-2.6c-0.3,0-0.5-0.1-0.7-0.3s-0.3-0.4-0.3-0.7V5.4
		c0-0.3-0.2-0.5-0.5-0.5H78c-0.3,0-0.5-0.1-0.7-0.3c-0.2-0.2-0.3-0.4-0.3-0.7V1.3c0-0.3,0.1-0.5,0.3-0.7c0.2-0.2,0.4-0.3,0.7-0.3
		h18.2c0.3,0,0.5,0.1,0.7,0.3c0.2,0.2,0.3,0.4,0.3,0.7V4c0,0.3-0.1,0.5-0.3,0.7c-0.2,0.2-0.4,0.3-0.7,0.3H90
		C89.6,4.9,89.5,5.1,89.5,5.4z"/>
	<path d="M112,25.9c-0.1-0.4-0.4-0.7-0.9-0.7h-8c-0.4,0-0.8,0.2-0.9,0.7l-2.1,7.3c-0.2,0.5-0.5,0.7-0.9,0.7h-2.6
		c-0.4,0-0.7-0.1-0.8-0.3c-0.2-0.2-0.2-0.4-0.1-0.6l8.9-31.9c0.1-0.5,0.4-0.7,0.9-0.7h3.4c0.5,0,0.8,0.2,0.9,0.7l8.9,31.9
		c0.1,0.2,0,0.4-0.1,0.6c-0.2,0.2-0.4,0.3-0.8,0.3h-2.6c-0.4,0-0.8-0.2-0.9-0.7L112,25.9z M110.1,20.8c0.4,0,0.5-0.2,0.4-0.5
		l-3.1-13.4c-0.1-0.2-0.1-0.3-0.2-0.3h-0.1c-0.1,0-0.2,0.1-0.2,0.3l-3.1,13.4c-0.1,0.4,0,0.5,0.4,0.5H110.1z"/>
	<path d="M142,24.4c0,1.3-0.3,2.6-0.8,3.8c-0.5,1.2-1.3,2.3-2.2,3.2c-1,0.9-2.1,1.6-3.4,2.2c-1.3,0.5-2.8,0.8-4.3,0.8
		c-1.4,0-2.8-0.2-4-0.7c-1.2-0.5-2.3-1.1-3.3-2c-0.9-0.9-1.7-1.9-2.3-3.1c-0.6-1.2-1-2.6-1.2-4.2c-0.1-1-0.2-2.1-0.3-3.3
		c-0.1-1.3-0.1-2.6-0.1-3.9c0-1.3,0-2.6,0.1-3.9c0.1-1.2,0.2-2.4,0.3-3.3c0.2-1.3,0.5-2.6,1.1-3.8C122,5,122.7,4,123.6,3
		c0.9-0.9,2-1.7,3.3-2.2c1.3-0.5,2.7-0.8,4.3-0.8c1.4,0,2.8,0.2,4.1,0.7c1.3,0.4,2.5,1.1,3.4,2c1,0.9,1.8,1.9,2.4,3.1
		C141.7,7,142,8.4,142,10v0.7c0,0.3-0.1,0.5-0.3,0.7c-0.2,0.2-0.4,0.3-0.7,0.3h-2.6c-0.3,0-0.5-0.1-0.7-0.3
		c-0.2-0.2-0.3-0.4-0.3-0.7V10c0-0.7-0.1-1.4-0.4-2c-0.3-0.7-0.7-1.2-1.2-1.7c-0.5-0.5-1.2-0.9-2-1.2c-0.8-0.3-1.6-0.5-2.6-0.5
		c-1.6,0-2.9,0.5-4.1,1.4c-1.2,0.9-1.9,2.3-2.1,4c-0.1,1-0.2,2.1-0.3,3.4c-0.1,1.2-0.1,2.5-0.1,3.8c0,1.3,0,2.6,0.1,3.8
		c0.1,1.2,0.2,2.4,0.3,3.4c0.1,0.7,0.3,1.4,0.6,2c0.3,0.7,0.7,1.2,1.2,1.7c0.5,0.5,1.2,0.9,1.9,1.2c0.7,0.3,1.6,0.5,2.5,0.5
		c0.8,0,1.6-0.1,2.3-0.4c0.8-0.2,1.4-0.6,2-1c0.6-0.4,1-1,1.4-1.7c0.4-0.7,0.5-1.5,0.5-2.3v-0.7c0-0.3,0.1-0.5,0.3-0.7
		c0.2-0.2,0.4-0.3,0.7-0.3h2.6c0.3,0,0.5,0.1,0.7,0.3c0.2,0.2,0.3,0.4,0.3,0.7V24.4z"/>
	<path d="M156.4,5.4V33c0,0.3-0.1,0.5-0.3,0.7c-0.2,0.2-0.4,0.3-0.7,0.3h-2.6c-0.3,0-0.5-0.1-0.7-0.3s-0.3-0.4-0.3-0.7V5.4
		c0-0.3-0.2-0.5-0.5-0.5H145c-0.3,0-0.5-0.1-0.7-0.3C144.1,4.5,144,4.2,144,4V1.3c0-0.3,0.1-0.5,0.3-0.7c0.2-0.2,0.4-0.3,0.7-0.3
		h18.2c0.3,0,0.5,0.1,0.7,0.3c0.2,0.2,0.3,0.4,0.3,0.7V4c0,0.3-0.1,0.5-0.3,0.7c-0.2,0.2-0.4,0.3-0.7,0.3h-6.3
		C156.5,4.9,156.4,5.1,156.4,5.4z"/>
</g>
</svg>
